<svg width="35" height="36" viewBox="0 0 35 36" fill="none" xmlns="http://www.w3.org/2000/svg">
<path d="M14.1 15.3C16.2 15.3 18 14.5 19.5 13.1C21 11.6 21.7 9.8 21.7 7.7C21.7 5.6 20.9 3.8 19.5 2.3C18 0.8 16.2 0 14.1 0C12 0 10.2 0.8 8.69999 2.2C7.19999 3.7 6.39999 5.6 6.39999 7.7C6.39999 9.8 7.19999 11.6 8.59999 13.1C10.2 14.6 12 15.3 14.1 15.3Z" fill="white"/>
<path d="M27.5 24.5C27.5 23.9 27.4 23.2 27.2 22.5C27.1 21.8 26.9 21.1 26.7 20.5C26.5 19.9 26.2 19.2 25.9 18.6C25.5 18 25.1 17.4 24.6 17C24.1 16.5 23.5 16.1 22.8 15.9C22.1 15.6 21.3 15.5 20.5 15.5C20.2 15.5 19.9 15.6 19.3 16C18.9 16.2 18.5 16.5 18 16.8C17.6 17.1 17 17.3 16.3 17.5C15.6 17.7 14.9 17.8 14.2 17.8C13.5 17.8 12.8 17.7 12.1 17.5C11.4 17.3 10.8 17 10.4 16.8C9.89999 16.5 9.49999 16.2 9.09999 16C8.49999 15.6 8.19999 15.5 7.89999 15.5C7.09999 15.5 6.29999 15.6 5.59999 15.9C4.89999 16.2 4.29999 16.6 3.79999 17C3.29999 17.5 2.89999 18 2.49999 18.6C2.19999 19.2 1.89999 19.8 1.69999 20.5C1.49999 21.1 1.29999 21.8 1.19999 22.5C1.09999 23.2 0.999994 23.9 0.899994 24.5C0.999994 25.1 0.999994 25.7 0.999994 26.4C0.999994 28.1 1.49999 29.4 2.59999 30.4C3.59999 31.4 4.99999 31.9 6.59999 31.9H22C23.7 31.9 25 31.4 26 30.4C27 29.4 27.6 28.1 27.6 26.4C27.6 25.7 27.6 25.1 27.5 24.5Z" fill="white"/>
<path d="M25.3 18.3C20.9 18.3 17.2 21.9 17.2 26.4C17.2 30.8 20.8 34.5 25.3 34.5C29.8 34.5 33.4 30.9 33.4 26.4C33.3 21.9 29.7 18.3 25.3 18.3Z" fill="white" stroke="#0F6ED8" stroke-width="1.5" stroke-miterlimit="10"/>
<path d="M25.3 23.3V29.5" stroke="#0E6ED9" stroke-width="1.5" stroke-miterlimit="10" stroke-linecap="round"/>
<path d="M28.4 26.4H22.2" stroke="#0E6ED9" stroke-width="1.5" stroke-miterlimit="10" stroke-linecap="round"/>
</svg>
