<svg width="44" height="44" viewBox="0 0 44 44" fill="none" xmlns="http://www.w3.org/2000/svg">
<g clip-path="url(#clip0)">
<path d="M23.4753 19.0656V39.5903H36.6721L41.0818 44V39.5903H44V19.0656H23.4753ZM28.8578 34.6618V23.0538L39.2661 28.8578L28.8578 34.6618Z" fill="white"/>
<path d="M0 0V20.5247H2.9182V24.9344L7.32793 20.5247H20.5247V0H0ZM16.5041 13.7155C16.5041 13.9749 16.3744 14.2019 16.1798 14.3316C15.9853 14.4613 15.7259 14.4937 15.4989 14.3965L9.43552 11.8998L9.88946 14.2343C9.92189 14.4613 9.88946 14.6883 9.72734 14.8504C9.59764 15.0125 9.37067 15.1098 9.17612 15.1098H6.97126C6.61459 15.1098 6.32277 14.8504 6.25792 14.5262L5.64186 11.4458C4.73397 11.3161 4.05306 10.538 4.05306 9.63007V8.8843C4.05306 7.87915 4.86367 7.03611 5.90125 7.03611H8.33309L15.5313 4.05306C15.7583 3.95579 16.0177 3.98821 16.2122 4.11791C16.4068 4.24761 16.5365 4.47458 16.5365 4.73397V13.7155H16.5041Z" fill="white"/>
<path d="M39.6228 5.12308H23.4754C23.0863 5.12308 22.7296 5.44732 22.7296 5.86884V16.1474C22.7296 16.5365 23.0539 16.8932 23.4754 16.8932H39.6228C40.0119 16.8932 40.3685 16.5689 40.3685 16.1474V5.86884C40.3361 5.44732 40.0119 5.12308 39.6228 5.12308ZM38.877 15.4016H24.2211V6.6146H38.877V15.4016Z" fill="white"/>
<path d="M26.3936 11.7377H36.6722C37.0612 11.7377 37.4179 11.4134 37.4179 10.9919C37.4179 10.6028 37.0937 10.2462 36.6722 10.2462H26.3936C26.0045 10.2462 25.6478 10.5704 25.6478 10.9919C25.6803 11.4134 26.0045 11.7377 26.3936 11.7377Z" fill="white"/>
<path d="M26.3936 9.53281H36.6722C37.0612 9.53281 37.4179 9.20857 37.4179 8.78705C37.4179 8.39796 37.0937 8.04129 36.6722 8.04129H26.3936C26.0045 8.04129 25.6478 8.36554 25.6478 8.78705C25.6803 9.20857 26.0045 9.53281 26.3936 9.53281Z" fill="white"/>
<path d="M26.3936 13.9425H32.1651C32.5542 13.9425 32.9109 13.6183 32.9109 13.1968C32.9109 12.8077 32.5867 12.451 32.1651 12.451H26.3936C26.0045 12.451 25.6478 12.7753 25.6478 13.1968C25.6803 13.6183 26.0045 13.9425 26.3936 13.9425Z" fill="white"/>
<path d="M35.2131 12.4834H34.4673C34.0782 12.4834 33.7216 12.8077 33.7216 13.2292C33.7216 13.6183 34.0458 13.975 34.4673 13.975H35.2131C35.6022 13.975 35.9588 13.6507 35.9588 13.2292C35.9588 12.8077 35.6022 12.4834 35.2131 12.4834Z" fill="white"/>
<path d="M21.2705 23.4753H6.61466C6.22557 23.4753 5.8689 23.7996 5.8689 24.2211V33.0081C5.8689 33.3972 6.19314 33.7539 6.61466 33.7539H21.2705C21.6596 33.7539 22.0163 33.4296 22.0163 33.0081V24.2211C22.0163 23.7996 21.692 23.4753 21.2705 23.4753ZM20.5248 32.2623H7.328V24.9344H20.5248V32.2623Z" fill="white"/>
<path d="M8.78714 29.3442H19.0657C19.4548 29.3442 19.8115 29.0199 19.8115 28.5984C19.8115 28.2093 19.4872 27.8526 19.0657 27.8526H8.78714C8.39805 27.8526 8.04138 28.1769 8.04138 28.5984C8.07381 29.0199 8.39805 29.3442 8.78714 29.3442Z" fill="white"/>
<path d="M8.78714 27.1393H19.0657C19.4548 27.1393 19.8115 26.815 19.8115 26.3935C19.8115 26.0044 19.4872 25.6478 19.0657 25.6478H8.78714C8.39805 25.6478 8.04138 25.972 8.04138 26.3935C8.07381 26.815 8.39805 27.1393 8.78714 27.1393Z" fill="white"/>
<path d="M8.78714 31.549H14.5911C14.9802 31.549 15.3369 31.2248 15.3369 30.8033C15.3369 30.4142 15.0126 30.0575 14.5911 30.0575H8.78714C8.39805 30.0575 8.04138 30.3817 8.04138 30.8033C8.07381 31.2248 8.39805 31.549 8.78714 31.549Z" fill="white"/>
<path d="M17.6065 30.0899H16.8608C16.4717 30.0899 16.115 30.4141 16.115 30.8357C16.115 31.2248 16.4392 31.5814 16.8608 31.5814H17.6065C17.9956 31.5814 18.3523 31.2572 18.3523 30.8357C18.3523 30.4141 17.9956 30.0899 17.6065 30.0899Z" fill="white"/>
</g>
<defs>
<clipPath id="clip0">
<rect width="44" height="44" fill="white"/>
</clipPath>
</defs>
</svg>
