<svg width="13" height="11" viewBox="0 0 13 11" fill="none" xmlns="http://www.w3.org/2000/svg">
<path d="M7.62991 5.87445H5.34579V6.59998H7.62991V5.87445Z" fill="#7F7F7F"/>
<path d="M10.5458 6.60001H8.40748V6.97447C8.40748 7.18511 8.23738 7.34894 8.01869 7.34894H4.98131C4.76262 7.34894 4.59252 7.18511 4.59252 6.97447V6.60001H2.45421C1.96822 6.60001 1.53084 6.29575 1.36075 5.85107L0 1.89575V9.90001C0 10.5085 0.51028 11 1.14206 11H11.8579C12.4897 11 13 10.5085 13 9.90001V1.89575L11.6393 5.85107C11.4692 6.29575 11.0318 6.60001 10.5458 6.60001Z" fill="#7F7F7F"/>
<path d="M8.0187 0H4.98132C4.34954 0 3.83926 0.491489 3.83926 1.1V1.47447H0.656082L2.08973 5.61702C2.13833 5.75745 2.28412 5.87447 2.45421 5.87447H4.59253V5.5C4.59253 5.28936 4.76262 5.12553 4.98132 5.12553H8.0187C8.23739 5.12553 8.40748 5.28936 8.40748 5.5V5.87447H10.5458C10.7159 5.87447 10.8617 5.78085 10.9103 5.61702L12.3439 1.47447H9.16075V1.1C9.16075 0.491489 8.65047 0 8.0187 0ZM4.59253 1.47447V1.1C4.59253 0.889362 4.76262 0.725532 4.98132 0.725532H8.0187C8.23739 0.725532 8.40748 0.889362 8.40748 1.1V1.47447H4.59253Z" fill="#7F7F7F"/>
</svg>
