<svg width="30" height="30" viewBox="0 0 30 30" fill="none" xmlns="http://www.w3.org/2000/svg">
<g clip-path="url(#clip0)">
<path fill-rule="evenodd" clip-rule="evenodd" d="M0 15.0165C0 23.2673 6.73267 30 15.0165 30C23.2673 30 30.033 23.3003 30.033 15.0165C30.033 6.73267 23.3003 0 15.0165 0C6.73267 0 0 6.76568 0 15.0165ZM2.64026 15.0165C2.64026 8.18482 8.18482 2.64026 15.0165 2.64026C21.8152 2.64026 27.3927 8.18482 27.3927 15.0165C27.3927 21.8482 21.8482 27.3927 15.0165 27.3927C8.18482 27.3927 2.64026 21.8482 2.64026 15.0165ZM25.8086 14.3565H23.3664C23.0033 14.3565 22.7063 14.6205 22.6403 14.9176C22.6073 15.2806 22.9043 15.5776 23.2674 15.5776H25.7096C25.7756 15.5776 25.8086 15.6106 25.8086 15.6766C25.6436 18.0529 24.7525 20.2641 23.1683 22.0793C23.1353 22.1123 23.0693 22.1123 23.0363 22.0793L21.4522 20.5611C21.2212 20.3301 20.7921 20.3301 20.5611 20.5941C20.3301 20.8252 20.3301 21.2542 20.5941 21.4852L22.1452 23.0034C22.1782 23.0694 22.1782 23.1354 22.1452 23.1684C20.3301 24.7526 18.0858 25.6766 15.7096 25.8417C15.6766 25.8417 15.6106 25.8087 15.6106 25.7427V23.3004C15.6106 22.9374 15.3136 22.6403 14.9505 22.6733C14.6205 22.7063 14.3565 23.0034 14.3565 23.3334V25.7757C14.3565 25.8417 14.3235 25.8747 14.2575 25.8747C12.1122 25.7427 10.099 24.9836 8.41587 23.6964C8.38287 23.6304 8.38287 23.5644 8.41587 23.5314L9.90102 22.0133C10.165 21.7823 10.165 21.3862 9.93402 21.1222C9.67 20.8582 9.27396 20.8582 9.00993 21.1222L7.45878 22.7063C7.42577 22.7394 7.35977 22.7394 7.32676 22.7063C5.44558 20.8252 4.32346 18.3829 4.15845 15.7427C4.15845 15.7096 4.19145 15.6436 4.25746 15.6436H6.6997C7.06274 15.6436 7.35977 15.3466 7.32676 14.9836C7.29376 14.6535 6.99673 14.3895 6.6667 14.3895H4.25746C4.19145 14.3895 4.15845 14.3565 4.15845 14.2905C4.32346 12.0463 5.14855 9.93407 6.56769 8.18489C6.63369 8.15189 6.6997 8.15189 6.7327 8.18489L8.31686 9.70305C8.41587 9.80206 8.58089 9.86806 8.74591 9.86806C8.94393 9.86806 9.10894 9.80206 9.24096 9.63704C9.43898 9.37301 9.40597 8.97697 9.17495 8.74595L7.59079 7.2278C7.55779 7.1948 7.55779 7.12879 7.59079 7.09579C9.43898 5.34661 11.7822 4.32351 14.2905 4.15849C14.3235 4.15849 14.3895 4.19149 14.3895 4.2575V6.69975C14.3895 7.06278 14.6865 7.35981 15.0495 7.32681C15.3796 7.29381 15.6436 6.99678 15.6436 6.66674V4.2245C15.6436 4.15849 15.6766 4.12549 15.7426 4.12549C18.2509 4.2905 20.5941 5.2806 22.4093 7.02978C22.4423 7.06278 22.4423 7.12879 22.4093 7.16179L20.8911 8.74595C20.6601 9.00998 20.6271 9.40602 20.8911 9.67004C21.0231 9.80206 21.1882 9.86806 21.3532 9.86806C21.5182 9.86806 21.6832 9.80206 21.8152 9.67004L23.3004 8.11889C23.3664 8.05288 23.4324 8.08588 23.4654 8.11889C24.9175 9.86806 25.7426 11.9803 25.9076 14.2575C25.9076 14.2905 25.8746 14.3565 25.8086 14.3565ZM18.6799 18.6139C18.8779 18.6139 19.0429 18.5479 19.1749 18.3829C19.373 18.0859 19.34 17.6898 19.0759 17.4588L15.9076 14.8846C15.7426 14.7526 15.6436 14.5215 15.6436 14.3235V10.0001C15.6436 9.63704 15.3466 9.34001 14.9835 9.37301C14.6535 9.40602 14.3895 9.70305 14.3895 10.0331V15.0166C14.3895 15.2476 14.5215 15.4456 14.6865 15.5446L18.2839 18.4819C18.3829 18.5809 18.5479 18.6139 18.6799 18.6139Z" fill="url(#paint0_linear)"/>
</g>
<defs>
<linearGradient id="paint0_linear" x1="9" y1="2" x2="21" y2="26" gradientUnits="userSpaceOnUse">
<stop stop-color="#21BDAA"/>
<stop offset="1" stop-color="#007264"/>
</linearGradient>
<clipPath id="clip0">
<rect width="30" height="30" fill="white"/>
</clipPath>
</defs>
</svg>
