<svg width="20" height="20" viewBox="0 0 20 20" fill="none" xmlns="http://www.w3.org/2000/svg">
<g clip-path="url(#clip0)">
<path d="M11.1719 15.2344H8.82812V20H11.1719V15.2344Z" fill="white"/>
<path d="M4.72916 20H7.65624V14.0625H12.3437V20H15.2864V0H4.72916V20ZM12.9271 2.34375H14.0989V3.51562H12.9271V2.34375ZM12.9271 4.6875H14.0989V5.85938H12.9271V4.6875ZM12.9271 7.03125H14.0989V8.20312H12.9271V7.03125ZM12.9271 9.375H14.0989V10.5469H12.9271V9.375ZM12.9271 11.7188H14.0989V12.8906H12.9271V11.7188ZM10.5833 2.34375H11.7552V3.51562H10.5833V2.34375ZM10.5833 4.6875H11.7552V5.85938H10.5833V4.6875ZM10.5833 7.03125H11.7552V8.20312H10.5833V7.03125ZM10.5833 9.375H11.7552V10.5469H10.5833V9.375ZM10.5833 11.7188H11.7552V12.8906H10.5833V11.7188ZM8.23957 2.34375H9.41145V3.51562H8.23957V2.34375ZM8.23957 4.6875H9.41145V5.85938H8.23957V4.6875ZM8.23957 7.03125H9.41145V8.20312H8.23957V7.03125ZM8.23957 9.375H9.41145V10.5469H8.23957V9.375ZM8.23957 11.7188H9.41145V12.8906H8.23957V11.7188ZM5.89582 2.34375H7.0677V3.51562H5.89582V2.34375ZM5.89582 4.6875H7.0677V5.85938H5.89582V4.6875ZM5.89582 7.03125H7.0677V8.20312H5.89582V7.03125ZM5.89582 9.375H7.0677V10.5469H5.89582V9.375ZM5.89582 11.7188H7.0677V12.8906H5.89582V11.7188Z" fill="white"/>
<path d="M20 4.6875H16.4323V20H20V4.6875Z" fill="white"/>
<path d="M3.55208 4.6875H0V20H3.55208V4.6875Z" fill="white"/>
</g>
<defs>
<clipPath id="clip0">
<rect width="20" height="20" fill="white"/>
</clipPath>
</defs>
</svg>
