<svg width="16" height="21" viewBox="0 0 16 21" fill="none" xmlns="http://www.w3.org/2000/svg">
<path d="M0 21H16V19.7641H14.6662V4.94375H10.6647V19.7695H9.33087V0H0V19.7641V21ZM11.9985 7.41016H13.3323V8.64609H11.9985V7.41016ZM11.9985 9.88203H13.3323V11.118H11.9985V9.88203ZM11.9985 12.3539H13.3323V13.5898H11.9985V12.3539ZM11.9985 14.8258H13.3323V16.0617H11.9985V14.8258ZM11.9985 17.2922H13.3323V18.5281H11.9985V17.2922ZM5.3353 2.47187H6.66913V3.70781H5.3353V2.47187ZM5.3353 4.94375H6.66913V6.17969H5.3353V4.94375ZM5.3353 7.41016H6.66913V8.64609H5.3353V7.41016ZM5.3353 9.88203H6.66913V11.118H5.3353V9.88203ZM5.3353 12.3539H6.66913V13.5898H5.3353V12.3539ZM2.66765 2.47187H4.00148V3.70781H2.66765V2.47187ZM2.66765 4.94375H4.00148V6.17969H2.66765V4.94375ZM2.66765 7.41016H4.00148V8.64609H2.66765V7.41016ZM2.66765 9.88203H4.00148V11.118H2.66765V9.88203ZM2.66765 12.3539H4.00148V13.5898H2.66765V12.3539ZM5.3353 19.7641V16.0562H4.00148V19.7641H2.66765V14.8203H6.66913V19.7641H5.3353Z" fill="white"/>
</svg>
