<svg width="20" height="17" viewBox="0 0 20 17" fill="none" xmlns="http://www.w3.org/2000/svg">
<g clip-path="url(#clip0)">
<path d="M6.68287 8.76338L8.04374 6.22535C8.16525 6.00986 8.38396 5.89014 8.62697 5.91408C8.86999 5.93803 9.0644 6.10563 9.1373 6.32113L10.401 10.631L11.5188 9.02676C11.616 8.85915 11.8104 8.76338 12.0049 8.76338H19.2467C19.7327 7.90141 20 6.91972 20 5.91408C20 2.65775 17.3026 0 13.9976 0C12.5152 0 11.0814 0.550704 9.98785 1.50845C8.89429 0.550704 7.46051 0 5.97813 0C2.69745 0 0 2.65775 0 5.89014C0 6.89577 0.267315 7.87746 0.753341 8.73944H6.68287V8.76338Z" fill="white"/>
<path d="M12.2965 9.91265L10.644 12.2831C10.5225 12.4507 10.3524 12.5465 10.158 12.5465C10.1337 12.5465 10.085 12.5465 10.0607 12.5465C9.84204 12.5225 9.64762 12.3549 9.59902 12.1394L8.40826 8.04504L7.55771 9.62533C7.4605 9.81688 7.26609 9.93659 7.04738 9.93659H1.60388C1.70109 10.0563 1.82259 10.1521 1.9441 10.2718L8.91858 16.6169C9.2102 16.8803 9.59902 17.0479 10.0121 17.0479C10.4496 17.0479 10.8384 16.8803 11.1543 16.5929L18.0802 10.2718C18.2017 10.176 18.2989 10.0563 18.4204 9.93659H12.2965V9.91265Z" fill="white"/>
</g>
<defs>
<clipPath id="clip0">
<rect width="20" height="17" fill="white"/>
</clipPath>
</defs>
</svg>
