<svg width="18" height="16" viewBox="0 0 18 16" fill="none" xmlns="http://www.w3.org/2000/svg">
<path d="M4.77109 13.7885C5.63856 13.7885 6.35422 13.0437 6.35422 12.1411C6.35422 10.9902 5.63856 10.0875 5.29157 9.70383C5.33494 3.70101 6.78796 1.48945 7.24338 0.970409C7.26506 0.947842 7.26506 0.925275 7.28675 0.925275C7.46024 0.699605 7.43856 0.338533 7.2 0.157997C6.98314 -0.0225391 6.63615 2.78838e-05 6.46265 0.248265V0.270832C5.87711 0.970409 5.46507 1.94079 5.22651 2.64037C4.5976 4.49086 4.25061 6.88296 4.25061 9.7264C3.90362 10.0875 3.18796 10.9902 3.18796 12.1636C3.20964 13.0438 3.90362 13.7885 4.77109 13.7885Z" fill="white"/>
<path d="M9 13.7885C9.86747 13.7885 10.5831 13.0437 10.5831 12.1411C10.5831 10.9902 9.86747 10.0875 9.52048 9.70383C9.56386 3.70101 11.0169 1.48945 11.4723 0.970409C11.494 0.947842 11.494 0.925275 11.5157 0.925275C11.6892 0.699605 11.6675 0.338533 11.4289 0.157997C11.2121 -0.0225391 10.8651 2.78838e-05 10.6916 0.248265V0.270832C10.106 0.970409 9.69398 1.94079 9.45542 2.64037C8.82651 4.49086 8.47952 6.88296 8.47952 9.7264C8.13253 10.0875 7.41687 10.9902 7.41687 12.1636C7.41687 13.0438 8.13253 13.7885 9 13.7885Z" fill="white"/>
<path d="M13.2289 13.7885C14.0964 13.7885 14.8121 13.0437 14.8121 12.1411C14.8121 10.9902 14.0964 10.0875 13.7494 9.70383C13.7928 3.70101 15.2458 1.48945 15.7012 0.970409C15.7229 0.947842 15.7229 0.925275 15.7446 0.925275C15.9181 0.699605 15.8964 0.338533 15.6578 0.157997C15.441 -0.0225391 15.094 2.78838e-05 14.9205 0.248265V0.270832C14.3349 0.970409 13.9229 1.94079 13.6843 2.64037C13.0554 4.49086 12.7084 6.88296 12.7084 9.7264C12.3614 10.0875 11.6458 10.9902 11.6458 12.1636C11.6458 13.0438 12.3398 13.7885 13.2289 13.7885Z" fill="white"/>
<path d="M6.39759 8.28209C6.3759 8.59803 6.3759 8.93653 6.35422 9.27504C6.52771 9.50071 6.70121 9.77151 6.8747 10.0649C7.04819 9.74894 7.22169 9.47814 7.41687 9.25247C7.41687 8.91396 7.43855 8.59803 7.43855 8.25952H6.39759V8.28209Z" fill="white"/>
<path d="M10.6265 8.28209C10.6048 8.59803 10.6048 8.93653 10.5831 9.27504C10.7566 9.50071 10.9301 9.77151 11.1036 10.0649C11.2771 9.74894 11.4506 9.47814 11.6458 9.25247C11.6458 8.91396 11.6675 8.59803 11.6675 8.25952H10.6265V8.28209Z" fill="white"/>
<path d="M14.812 9.29762C15.2892 9.90693 15.853 10.8999 15.853 12.1411C15.853 13.6531 14.6602 14.8942 13.2072 14.8942C12.3398 14.8942 11.5807 14.4655 11.1036 13.7885C10.6265 14.4655 9.84578 14.8942 9 14.8942C8.13253 14.8942 7.37349 14.4655 6.89639 13.7885C6.41928 14.4655 5.63855 14.8942 4.79277 14.8942C3.33976 14.8942 2.14699 13.6531 2.14699 12.1411C2.14699 10.8999 2.73253 9.90693 3.20964 9.29762C3.20964 8.95911 3.23133 8.64318 3.23133 8.30467H0V15.4358C0 15.7292 0.238554 15.9775 0.520482 15.9775H17.4578C17.7398 15.9775 17.9783 15.7292 17.9783 15.4358V8.2821H14.8337C14.8337 8.62061 14.812 8.93655 14.812 9.29762Z" fill="white"/>
<path d="M10.6916 7.19889H11.7326C11.7976 6.43161 11.8844 5.6869 11.9928 5.00989H10.9952C10.8868 5.6192 10.7783 6.34134 10.6916 7.19889Z" fill="white"/>
<path d="M17.4795 5.00989H15.2241C15.094 5.64176 14.9856 6.36391 14.9205 7.19889H18V5.5515C18 5.23556 17.7615 5.00989 17.4795 5.00989Z" fill="white"/>
<path d="M6.48434 7.19889H7.52531C7.59037 6.43161 7.67711 5.6869 7.78555 5.00989H6.78796C6.65784 5.6192 6.5494 6.34134 6.48434 7.19889Z" fill="white"/>
<path d="M3.57832 5.00989H0.54218C0.260252 5.00989 0.021698 5.25812 0.021698 5.5515V7.19889H3.31808C3.36146 6.43161 3.4482 5.6869 3.57832 5.00989Z" fill="white"/>
</svg>
