<svg width="42" height="38" viewBox="0 0 42 38" fill="none" xmlns="http://www.w3.org/2000/svg">
<path d="M21.0837 5.35738L13.9721 0.456831C13.5538 0.16612 13.0518 0 12.5498 0H7.57171C3.38845 0 0 3.36393 0 7.51694V30.4831C0 34.6361 3.38845 38 7.57171 38H34.4283C38.6116 38 42 34.6361 42 30.4831V13.3311C42 9.17814 38.6116 5.81421 34.4283 5.81421H22.506C21.9622 5.81421 21.502 5.64809 21.0837 5.35738Z" fill="white"/>
<path d="M23.4263 21.7617H18.5737C15.8964 21.7617 13.7629 23.9213 13.7629 26.5377V30.2754H28.2789V26.5377C28.237 23.9213 26.1036 21.7617 23.4263 21.7617Z" fill="#0177FD"/>
<path d="M21.0001 19.8514C22.8483 19.8514 24.3467 18.3639 24.3467 16.5289C24.3467 14.694 22.8483 13.2065 21.0001 13.2065C19.1518 13.2065 17.6534 14.694 17.6534 16.5289C17.6534 18.3639 19.1518 19.8514 21.0001 19.8514Z" fill="#0177FD"/>
</svg>
