<svg width="46" height="49" viewBox="0 0 46 49" fill="none" xmlns="http://www.w3.org/2000/svg">
<g clip-path="url(#clip0)">
<path d="M41.1905 0H37.0662H23.9817C21.32 0 19.1722 2.14244 19.1722 4.78433V13.7615C18.6319 13.4724 18.0258 13.3146 17.3801 13.3146H11.9908H3.7949C1.6998 13.3146 0 14.997 0 17.0869V30.5856C0 32.6754 1.6998 34.3578 3.7949 34.3578H11.2529V37.8278L15.7594 34.3578H15.7857H16.181V43.8608C16.181 45.346 17.3933 46.5421 18.8823 46.5421H24.1661V49.0131L27.3681 46.5421H28.5013C29.9903 46.5421 31.2025 45.346 31.2025 43.8608V34.279C31.2025 32.7937 29.9903 31.5976 28.5013 31.5976H24.3506H21.1618V25.7881C21.9524 26.3533 22.9275 26.695 23.9817 26.695H33.0077V27.9174V31.0587L38.7264 26.695H41.1905C43.8522 26.695 46 24.5526 46 21.9107V4.78433C46 2.14244 43.8522 0 41.1905 0ZM15.5617 26.419H12.5838L12.1358 29.1266C12.0699 29.4946 11.7668 29.7444 11.4111 29.7444C11.3715 29.7444 11.332 29.7444 11.2925 29.7312C10.884 29.6655 10.6205 29.2843 10.6863 28.8769L11.0948 26.419H9.2896L8.84159 29.1266C8.77571 29.4946 8.47264 29.7444 8.11687 29.7444C8.07734 29.7444 8.03781 29.7444 7.99828 29.7312C7.5898 29.6655 7.32627 29.2843 7.39215 28.8769L7.80063 26.419H5.60011C5.19164 26.419 4.86222 26.0904 4.86222 25.6829C4.86222 25.2755 5.19164 24.9469 5.60011 24.9469H8.03781L8.34088 23.1462H5.60011C5.19164 23.1462 4.86222 22.8176 4.86222 22.4101C4.86222 22.0027 5.19164 21.6741 5.60011 21.6741H8.57806L9.02607 18.9665C9.09195 18.559 9.47408 18.2961 9.88255 18.3619C10.291 18.4276 10.5546 18.8087 10.4887 19.2162L10.0802 21.6741H11.8722L12.3203 18.9665C12.3861 18.559 12.7683 18.2961 13.1767 18.3619C13.5852 18.4276 13.8488 18.8087 13.7829 19.2162L13.3744 21.6741H15.5617C15.9702 21.6741 16.2996 22.0027 16.2996 22.4101C16.2996 22.8176 15.9702 23.1462 15.5617 23.1462H13.124L12.821 24.9469H15.5486C15.957 24.9469 16.2864 25.2755 16.2864 25.6829C16.2996 26.0904 15.9702 26.419 15.5617 26.419ZM23.6918 37.4335C24.5614 35.5671 27.6184 36.1848 27.6184 38.6821C27.6184 40.4828 26.2744 41.6526 23.6918 43.0196C21.1091 41.6526 19.7651 40.4828 19.7651 38.6821C19.7651 36.198 22.7035 35.5145 23.6918 37.4335ZM40.3735 19.8208C40.3999 20.4911 39.8728 21.0563 39.2008 21.0563H32.1512C31.1366 21.0563 30.1616 20.7146 29.371 20.0705L28.8702 19.6631H28.778V20.3334C28.778 20.5437 28.6067 20.7146 28.3959 20.7146H25.1807C24.9699 20.7146 24.7986 20.5437 24.7986 20.3334V12.1711C24.7986 11.9608 24.9699 11.79 25.1807 11.79H28.3959C28.6067 11.79 28.778 11.9608 28.778 12.1711V13.0123H28.9493L31.9931 9.56867C32.8101 8.63546 33.2713 7.43938 33.2713 6.20386C33.2713 5.92784 33.4162 5.67811 33.6402 5.53353C34.0223 5.29694 34.5099 5.42838 34.7339 5.80955C35.5113 7.16336 35.6035 8.80633 34.9974 10.239L34.4176 11.6191L39.2008 11.6322C39.8465 11.6322 40.3735 12.158 40.3735 12.802C40.3735 13.4461 40.3472 19.1899 40.3735 19.8208Z" fill="white"/>
<path d="M9.53992 24.9469H11.332L11.6218 23.1462H9.84298L9.53992 24.9469Z" fill="white"/>
</g>
<defs>
<clipPath id="clip0">
<rect width="46" height="49" fill="white"/>
</clipPath>
</defs>
</svg>
