<svg width="26" height="26" viewBox="0 0 26 26" fill="none" xmlns="http://www.w3.org/2000/svg">
<path d="M17.3 23.9H8.1C4.5 23.9 1.5 21 1.5 17.3V8.1C1.5 4.5 4.4 1.5 8.1 1.5H17.4C21 1.5 24 4.4 24 8.1V17.4C23.9 21 21 23.9 17.3 23.9Z" stroke="white" stroke-width="3" stroke-miterlimit="10"/>
<path d="M12.7 17.4C15.2957 17.4 17.4 15.2957 17.4 12.7C17.4 10.1043 15.2957 8 12.7 8C10.1043 8 8 10.1043 8 12.7C8 15.2957 10.1043 17.4 12.7 17.4Z" stroke="white" stroke-width="3" stroke-miterlimit="10"/>
<path d="M19.1 7.89995C19.9837 7.89995 20.7 7.18361 20.7 6.29995C20.7 5.4163 19.9837 4.69995 19.1 4.69995C18.2163 4.69995 17.5 5.4163 17.5 6.29995C17.5 7.18361 18.2163 7.89995 19.1 7.89995Z" fill="white"/>
</svg>
