<svg width="92" height="36" viewBox="0 0 92 36" fill="none" xmlns="http://www.w3.org/2000/svg">
<g clip-path="url(#clip0)">
<path d="M25.8235 3.7113L5.08381 7.337C4.53498 7.42264 4.18836 7.93652 4.27502 8.47895C4.36167 9.02138 4.88161 9.36396 5.43043 9.27831L26.1702 5.65262C26.719 5.56697 27.0656 5.0531 26.9789 4.51067C26.8923 4.02534 26.459 3.7113 25.9968 3.7113C25.9391 3.7113 25.8813 3.7113 25.8235 3.7113Z" fill="white"/>
<path d="M30.3868 23.6098C30.1557 22.2966 28.8847 21.4401 27.5849 21.6685L21.1435 22.8105L21.7789 26.2934C22.01 27.6067 21.1146 28.8914 19.7858 29.1197C18.4571 29.3481 17.1573 28.4631 16.9262 27.1499L16.2907 23.6669L11.9868 24.4092C10.6581 24.6376 9.35822 23.7526 9.12713 22.4393C8.89605 21.1261 9.7915 19.8414 11.1202 19.613L15.3953 18.8422L14.7598 15.3592C14.5287 14.046 15.4242 12.7613 16.7529 12.5329C18.0816 12.3045 19.3815 13.1895 19.6125 14.5028L20.2769 17.9857L25.8518 17.0151C27.6716 16.701 28.8559 14.9881 28.5381 13.2181L27.6427 8.22205C27.556 7.67962 27.0361 7.33703 26.4873 7.42268L5.34315 11.1055C3.81222 11.3624 2.28129 10.3632 2.02132 8.82157C1.79024 7.33703 2.80123 5.9096 4.30327 5.65266L25.4763 1.94132C26.0251 1.85567 26.4006 1.34179 26.3139 0.799366C26.2273 0.342585 25.794 0 25.3318 0C25.2741 0 25.2163 0 25.1585 0.0285488L3.95665 3.71134C1.35696 4.16812 -0.405049 6.62332 0.0571174 9.1927L1.15476 15.245L4.12996 31.8604C4.62101 34.6011 7.24958 36.3997 10.0226 35.9144L26.8628 33.0024C29.6647 32.5171 31.5133 29.8906 31.0223 27.1213L30.3868 23.6098Z" fill="white"/>
<path d="M36.8 18.9278H40.2374C41.4217 18.9278 42.4038 18.5281 43.2126 17.7002C44.0213 16.8723 44.3969 15.8731 44.3969 14.6455C44.3969 13.4464 43.9925 12.4187 43.2126 11.5908C42.4038 10.7628 41.4217 10.3632 40.2374 10.3632H36.8V18.9278ZM38.5042 11.9904H40.2374C40.9884 11.9904 41.595 12.2474 42.0571 12.7327C42.5193 13.218 42.7504 13.8747 42.7504 14.6455C42.7504 15.4448 42.5193 16.0729 42.0571 16.5582C41.595 17.0436 40.9884 17.3005 40.2374 17.3005H38.5042V11.9904Z" fill="white"/>
<path d="M46.3322 12.0761C46.5921 12.0761 46.8232 11.9904 47.0254 11.7906C47.2276 11.5908 47.3143 11.3624 47.3143 11.1054C47.3143 10.8485 47.2276 10.6201 47.0254 10.4203C46.8232 10.2204 46.5921 10.1348 46.3322 10.1348C46.0722 10.1348 45.8411 10.2204 45.6389 10.4203C45.4367 10.6201 45.3501 10.8485 45.3501 11.1054C45.3501 11.3624 45.4367 11.5908 45.6389 11.7906C45.8411 11.9904 46.0722 12.0761 46.3322 12.0761Z" fill="white"/>
<path d="M47.1121 12.8184H45.5234V18.9278H47.1121V12.8184Z" fill="white"/>
<path d="M52.0515 14.4742V12.7042C51.6182 12.7042 51.2427 12.7899 50.8961 12.9897C50.5494 13.1896 50.3184 13.475 50.1739 13.8747V12.8184H48.5852V18.9279H50.1739V16.0159C50.1739 15.4164 50.3761 15.0167 50.7516 14.7597C51.156 14.5028 51.5893 14.4171 52.0515 14.4742Z" fill="white"/>
<path d="M58.5218 17.7858L57.222 17.0436C56.9042 17.4433 56.4421 17.6431 55.8355 17.6431C54.8823 17.6431 54.3046 17.272 54.1024 16.5011H58.7529C58.7818 16.2728 58.8107 16.0444 58.8107 15.8445C58.8107 14.931 58.5218 14.1601 57.9152 13.5321C57.3375 12.904 56.5865 12.59 55.6622 12.59C54.7089 12.59 53.929 12.904 53.3225 13.5035C52.7159 14.1316 52.3981 14.8739 52.3981 15.816C52.3981 16.7581 52.7159 17.5289 53.3225 18.1284C53.929 18.728 54.7667 19.042 55.7777 19.042C57.0198 19.0991 57.9152 18.6709 58.5218 17.7858ZM54.6512 14.3885C54.94 14.1601 55.2866 14.0745 55.7199 14.0745C56.0954 14.0745 56.4132 14.1887 56.702 14.3885C56.9909 14.5884 57.1642 14.9024 57.2509 15.3306H54.1024C54.189 14.9024 54.3623 14.6169 54.6512 14.3885Z" fill="white"/>
<path d="M64.5011 18.6709C64.9921 18.3854 65.3676 17.9857 65.6565 17.529L64.27 16.7581C64.1545 17.0151 63.9523 17.2149 63.7212 17.3577C63.4612 17.5004 63.1724 17.5575 62.8546 17.5575C62.3636 17.5575 61.9881 17.4148 61.6703 17.1007C61.3526 16.7867 61.2082 16.387 61.2082 15.9017C61.2082 15.4164 61.3526 15.0167 61.6703 14.7026C61.9881 14.3886 62.3925 14.2459 62.8546 14.2459C63.1724 14.2459 63.4612 14.3315 63.6923 14.4742C63.9523 14.617 64.1256 14.8168 64.2411 15.0738L65.6276 14.2744C65.3676 13.7891 64.9921 13.4179 64.5011 13.1325C64.01 12.847 63.4612 12.7042 62.8546 12.7042C61.9303 12.7042 61.1504 13.0183 60.5149 13.6463C59.8794 14.2744 59.5906 15.0452 59.5906 15.9588C59.5906 16.8723 59.9083 17.6432 60.5149 18.2712C61.1504 18.8993 61.9014 19.2133 62.8546 19.2133C63.4612 19.0991 64.01 18.9564 64.5011 18.6709Z" fill="white"/>
<path d="M67.043 16.8723C67.043 17.7002 67.2741 18.2998 67.7074 18.6138C68.1695 18.9278 68.9206 19.042 70.0182 18.9278V17.5004C69.7005 17.5289 69.4694 17.5289 69.2383 17.5004C69.0361 17.5004 68.8628 17.4433 68.7761 17.3291C68.6606 17.2435 68.6028 17.0722 68.6028 16.8723V14.3315H69.9893V12.8184H68.6028V11.1055L67.0141 11.5908V12.8184H65.9454V14.3315H67.0141V16.8723H67.043Z" fill="white"/>
<path d="M73.9177 19.0991C74.8421 19.0991 75.622 18.7851 76.2574 18.157C76.8929 17.5289 77.2107 16.7581 77.2107 15.8731C77.2107 14.9595 76.8929 14.2173 76.2574 13.5892C75.622 12.9611 74.8421 12.6471 73.9177 12.6471C72.9934 12.6471 72.2424 12.9611 71.6069 13.5892C70.9714 14.2173 70.6537 14.9881 70.6537 15.8731C70.6537 16.7867 70.9714 17.5289 71.6069 18.157C72.2424 18.7851 73.0223 19.0991 73.9177 19.0991ZM72.7334 14.6741C73.0512 14.36 73.4556 14.1887 73.9177 14.1887C74.4088 14.1887 74.7843 14.36 75.1309 14.6741C75.4487 14.9881 75.622 15.3878 75.622 15.8731C75.622 16.3584 75.4487 16.7581 75.1309 17.0722C74.8132 17.3862 74.4088 17.5575 73.9177 17.5575C73.4267 17.5575 73.0512 17.3862 72.7334 17.0722C72.4157 16.7581 72.2713 16.3584 72.2713 15.8731C72.2424 15.3878 72.4157 14.9881 72.7334 14.6741Z" fill="white"/>
<path d="M79.9259 13.8747V12.8184H78.3372V18.9279H79.9259V16.0159C79.9259 15.4164 80.1281 15.0167 80.5036 14.7597C80.8791 14.5028 81.3124 14.4171 81.8035 14.4742V12.7042C81.3702 12.7042 80.9947 12.7899 80.648 12.9897C80.3303 13.1896 80.0703 13.475 79.9259 13.8747Z" fill="white"/>
<path d="M84.3165 12.8184H82.7278V18.9278H84.3165V12.8184Z" fill="white"/>
<path d="M83.5366 10.1348C83.2766 10.1348 83.0455 10.2204 82.8433 10.4203C82.6411 10.6201 82.5545 10.8485 82.5545 11.1054C82.5545 11.3624 82.6411 11.5908 82.8433 11.7906C83.0455 11.9904 83.2766 12.0761 83.5366 12.0761C83.7966 12.0761 84.0276 11.9904 84.2298 11.7906C84.432 11.5908 84.5187 11.3624 84.5187 11.1054C84.5187 10.8485 84.432 10.6201 84.2298 10.4203C84.0276 10.249 83.7966 10.1348 83.5366 10.1348Z" fill="white"/>
<path d="M91.0468 13.5892C90.4113 12.9611 89.6314 12.6471 88.7071 12.6471C87.7827 12.6471 87.0317 12.9611 86.3962 13.5892C85.7608 14.2173 85.443 14.9881 85.443 15.8731C85.443 16.7867 85.7608 17.5289 86.3962 18.157C87.0317 18.7851 87.8116 19.0991 88.7071 19.0991C89.6314 19.0991 90.4113 18.7851 91.0468 18.157C91.6823 17.5289 92 16.7581 92 15.8731C92 14.9881 91.6823 14.2173 91.0468 13.5892ZM89.9203 17.1007C89.6025 17.4147 89.1981 17.586 88.7071 17.586C88.216 17.586 87.8405 17.4147 87.5228 17.1007C87.205 16.7867 87.0606 16.387 87.0606 15.9017C87.0606 15.4163 87.205 15.0166 87.5228 14.7026C87.8405 14.3886 88.2449 14.2173 88.7071 14.2173C89.1981 14.2173 89.5736 14.3886 89.9203 14.7026C90.238 15.0166 90.4113 15.4163 90.4113 15.9017C90.4113 16.3584 90.238 16.7581 89.9203 17.1007Z" fill="white"/>
<path d="M41.0173 25.3227L38.5331 21.2974H36.8V29.862H38.5042V24.3235L40.9306 28.2918L41.1328 28.2633L43.5592 24.295V29.862H45.2634V21.2974H43.5014L41.0173 25.3227Z" fill="white"/>
<path d="M48.6719 22.9246H50.2028L51.5893 21.2402H49.654L48.6719 22.9246Z" fill="white"/>
<path d="M49.7407 23.5813C48.7874 23.5813 48.0075 23.8953 47.4009 24.4949C46.7943 25.1229 46.4766 25.8652 46.4766 26.8073C46.4766 27.7494 46.7943 28.5202 47.4009 29.1198C48.0075 29.7193 48.8452 30.0333 49.8562 30.0333C51.0405 30.0333 51.9359 29.6051 52.5425 28.7201L51.2427 27.9778C50.925 28.3775 50.4628 28.5773 49.8562 28.5773C48.903 28.5773 48.3253 28.2062 48.1231 27.4354H52.7736C52.8025 27.207 52.8314 26.9786 52.8314 26.7788C52.8314 25.8652 52.5425 25.0944 51.9359 24.4663C51.3871 23.8668 50.6361 23.5813 49.7407 23.5813ZM48.1231 26.2363C48.2097 25.8367 48.4119 25.5512 48.6719 25.3228C48.9607 25.0944 49.3074 25.0087 49.7407 25.0087C50.1162 25.0087 50.4339 25.1229 50.7228 25.3228C51.0116 25.5226 51.1849 25.8367 51.2716 26.2649H48.1231V26.2363Z" fill="white"/>
<path d="M58.6373 24.4663C58.1752 23.8668 57.5108 23.5813 56.6443 23.5813C55.8066 23.5813 55.1133 23.8953 54.5067 24.5234C53.929 25.1514 53.6113 25.9223 53.6113 26.8073C53.6113 27.6923 53.9001 28.4631 54.5067 29.0912C55.0844 29.7192 55.8066 30.0333 56.6443 30.0333C57.5108 30.0333 58.1752 29.7478 58.6373 29.1483V29.862H60.226V21.2974H58.6373V24.4663ZM58.1463 28.0349C57.8286 28.3489 57.4242 28.5202 56.9331 28.5202C56.4421 28.5202 56.0377 28.3489 55.691 28.0349C55.3733 27.7208 55.2 27.2926 55.2 26.8073C55.2 26.2934 55.3733 25.8937 55.691 25.5797C56.0088 25.2656 56.4132 25.0943 56.9331 25.0943C57.4242 25.0943 57.8286 25.2656 58.1463 25.5797C58.464 25.8937 58.6373 26.3219 58.6373 26.8073C58.6373 27.2926 58.464 27.7208 58.1463 28.0349Z" fill="white"/>
<path d="M63.2879 23.7526H61.6992V29.862H63.2879V23.7526Z" fill="white"/>
<path d="M62.4791 21.069C62.2191 21.069 61.988 21.1546 61.7858 21.3545C61.5836 21.5543 61.497 21.7827 61.497 22.0396C61.497 22.2966 61.5836 22.525 61.7858 22.7248C61.988 22.9246 62.2191 23.0103 62.4791 23.0103C62.7391 23.0103 62.9702 22.9246 63.1723 22.7248C63.3745 22.525 63.4612 22.2966 63.4612 22.0396C63.4612 21.7827 63.3745 21.5543 63.1723 21.3545C62.999 21.1546 62.7391 21.069 62.4791 21.069Z" fill="white"/>
<path d="M68.5451 28.2347C68.2851 28.3775 67.9962 28.4346 67.6785 28.4346C67.1874 28.4346 66.8119 28.2918 66.4942 27.9778C66.1765 27.6638 66.032 27.2641 66.032 26.7788C66.032 26.2934 66.1765 25.8937 66.4942 25.5797C66.8119 25.2657 67.2163 25.1229 67.6785 25.1229C67.9962 25.1229 68.2851 25.2086 68.5162 25.3513C68.7761 25.4941 68.9495 25.6939 69.065 25.9508L70.4515 25.1515C70.1915 24.6662 69.816 24.295 69.325 24.0095C68.8339 23.724 68.2851 23.5813 67.6785 23.5813C66.7542 23.5813 65.9743 23.8953 65.3388 24.5234C64.7033 25.1515 64.4144 25.9223 64.4144 26.8359C64.4144 27.7494 64.7322 28.5202 65.3388 29.1483C65.9743 29.7764 66.7253 30.0904 67.6785 30.0904C68.2851 30.0904 68.8339 29.9477 69.325 29.6622C69.816 29.3767 70.1915 28.977 70.4804 28.5202L69.0939 27.7494C68.9783 27.8922 68.7761 28.092 68.5451 28.2347Z" fill="white"/>
<path d="M74.1777 23.5813C73.2534 23.5813 72.5024 23.8953 71.8669 24.5234C71.2314 25.1515 70.9137 25.9223 70.9137 26.8073C70.9137 27.6923 71.2314 28.4631 71.8669 29.0912C72.5024 29.7193 73.2823 30.0333 74.1777 30.0333C75.102 30.0333 75.8819 29.7193 76.5174 29.0912C77.1529 28.4631 77.4706 27.6923 77.4706 26.8073C77.4706 25.9223 77.1529 25.1515 76.5174 24.5234C75.8819 23.8953 75.102 23.5813 74.1777 23.5813ZM75.3909 28.0064C75.0732 28.3204 74.6688 28.4917 74.1777 28.4917C73.6867 28.4917 73.3112 28.3204 72.9934 28.0064C72.6757 27.6923 72.5313 27.2926 72.5313 26.8073C72.5313 26.322 72.6757 25.9223 72.9934 25.6083C73.3112 25.2942 73.7155 25.1229 74.1777 25.1229C74.6688 25.1229 75.0443 25.2942 75.3909 25.6083C75.7086 25.9223 75.882 26.322 75.882 26.8073C75.8531 27.2926 75.7086 27.6923 75.3909 28.0064Z" fill="white"/>
<path d="M64.2122 5.82396C63.8656 5.82396 63.6634 5.65267 63.5479 5.39573L62.7969 5.82396C63.0279 6.33784 63.519 6.59478 64.1834 6.59478C64.9055 6.59478 65.5121 6.2522 65.5121 5.53848C65.5121 4.33943 63.779 4.62492 63.779 4.13959C63.779 3.9683 63.9523 3.88265 64.1545 3.88265C64.4144 3.88265 64.5878 3.99684 64.6744 4.22523L65.3965 3.82555C65.1366 3.36877 64.6744 3.14038 64.1256 3.14038C63.4323 3.14038 62.8546 3.51151 62.8546 4.19669C62.8546 5.36718 64.5878 5.0817 64.5878 5.56703C64.6744 5.70977 64.5011 5.82396 64.2122 5.82396Z" fill="white"/>
<path d="M60.3416 6.59477C60.8326 6.59477 61.1793 6.42347 61.4392 6.10944V6.50912H62.3058V3.19746H61.4392V3.59715C61.2082 3.31166 60.8326 3.11182 60.3416 3.11182C59.4461 3.11182 58.724 3.88263 58.724 4.85329C58.724 5.82395 59.475 6.59477 60.3416 6.59477ZM60.5149 3.91118C61.0348 3.91118 61.4392 4.28232 61.4392 4.85329C61.4392 5.42427 61.0348 5.7954 60.5149 5.7954C59.995 5.7954 59.5906 5.42427 59.5906 4.85329C59.5906 4.28232 59.995 3.91118 60.5149 3.91118Z" fill="white"/>
<path d="M57.5108 4.9104C57.5108 4.22523 58.0885 4.02539 58.5218 4.08249V3.14038C58.0885 3.14038 57.6841 3.31167 57.5108 3.76845V3.19748H56.6443V6.48059H57.5108V4.9104Z" fill="white"/>
<path d="M42.4038 6.59477C43.3859 6.59477 44.1658 5.82395 44.1658 4.85329C44.1658 3.88263 43.3859 3.11182 42.4038 3.11182C41.4217 3.11182 40.6418 3.88263 40.6418 4.85329C40.6418 5.82395 41.4217 6.59477 42.4038 6.59477ZM42.4038 3.93973C42.9237 3.93973 43.2992 4.31086 43.2992 4.85329C43.2992 5.39572 42.8948 5.76685 42.4038 5.76685C41.8838 5.76685 41.5083 5.39572 41.5083 4.85329C41.5083 4.31086 41.8838 3.93973 42.4038 3.93973Z" fill="white"/>
<path d="M37.3488 4.59641H39.0819V6.50918H39.9774V1.88428H39.0819V3.7114H37.3488V1.88428H36.4245V6.50918H37.3488V4.59641Z" fill="white"/>
<path d="M45.6389 4.71053C45.6389 4.13956 45.9567 3.88262 46.3611 3.88262C46.7366 3.88262 47.0254 4.11101 47.0254 4.56779V6.48056H47.892V4.45359C47.892 3.56858 47.3432 3.08325 46.621 3.08325C46.1878 3.08325 45.8411 3.25454 45.6389 3.54003V3.1689H44.7724V6.45201H45.6389V4.71053Z" fill="white"/>
<path d="M50.0873 6.59482C50.5783 6.59482 50.925 6.42353 51.156 6.10949V6.50918H52.0226V1.88428H51.156V3.5972C50.925 3.28317 50.5494 3.11187 50.0873 3.11187C49.1918 3.11187 48.4697 3.88269 48.4697 4.85335C48.4408 5.82401 49.1918 6.59482 50.0873 6.59482ZM50.2317 3.91124C50.7516 3.91124 51.156 4.28237 51.156 4.85335C51.156 5.42432 50.7516 5.79546 50.2317 5.79546C49.7118 5.79546 49.3074 5.42432 49.3074 4.85335C49.3074 4.28237 49.7118 3.91124 50.2317 3.91124Z" fill="white"/>
<path d="M54.0157 6.59481C54.449 6.59481 54.7956 6.42352 54.9978 6.13803V6.50917H55.8644V3.19751H54.9978V4.96753C54.9978 5.53851 54.68 5.79545 54.2757 5.79545C53.9001 5.79545 53.6113 5.56706 53.6113 5.11028V3.19751H52.7447V5.22447C52.7447 6.10948 53.2935 6.59481 54.0157 6.59481Z" fill="white"/>
</g>
<defs>
<clipPath id="clip0">
<rect width="92" height="36" fill="white"/>
</clipPath>
</defs>
</svg>
