<svg width="35" height="39" viewBox="0 0 35 39" fill="none" xmlns="http://www.w3.org/2000/svg">
<path d="M33.58 0H1.38158C0.614035 0 0 0.615992 0 1.38598V37.614C0 38.384 0.614035 39 1.38158 39H33.58C34.3476 39 34.9616 38.384 34.9616 37.614V1.38598C35 0.615992 34.386 0 33.58 0ZM17.1546 3.73445H20.1864C20.5702 3.73445 20.8772 4.04245 20.8772 4.42744C20.8772 4.81244 20.5702 5.12043 20.1864 5.12043H17.1546C16.7708 5.12043 16.4638 4.81244 16.4638 4.42744C16.4638 4.04245 16.7708 3.73445 17.1546 3.73445ZM5.29605 3.73445H13.5855C13.9693 3.73445 14.2763 4.04245 14.2763 4.42744C14.2763 4.81244 13.9693 5.12043 13.5855 5.12043H5.29605C4.91228 5.12043 4.60526 4.81244 4.60526 4.42744C4.60526 4.04245 4.91228 3.73445 5.29605 3.73445ZM5.67982 34.1106C5.14254 34.1106 4.68202 33.6871 4.68202 33.1096C4.68202 32.5706 5.10417 32.1086 5.67982 32.1086C6.21711 32.1086 6.67763 32.5321 6.67763 33.1096C6.63925 33.6871 6.21711 34.1106 5.67982 34.1106ZM9.13377 34.1106C8.59649 34.1106 8.13597 33.6871 8.13597 33.1096C8.13597 32.5706 8.55811 32.1086 9.13377 32.1086C9.67105 32.1086 10.1316 32.5321 10.1316 33.1096C10.0932 33.6871 9.67105 34.1106 9.13377 34.1106ZM12.5877 34.1106C12.0504 34.1106 11.5899 33.6871 11.5899 33.1096C11.5899 32.5706 12.0121 32.1086 12.5877 32.1086C13.125 32.1086 13.5855 32.5321 13.5855 33.1096C13.5855 33.6871 13.125 34.1106 12.5877 34.1106ZM30.318 28.2201C30.318 28.7206 29.8958 29.1441 29.3969 29.1441H28.3991H5.67982C5.14254 29.1441 4.68202 28.6821 4.68202 28.1431V20.4432V9.04738C4.68202 8.54689 5.10417 8.1234 5.60307 8.1234H29.3586C29.8575 8.1234 30.2796 8.54689 30.2796 9.04738V28.2201H30.318Z" fill="white"/>
<path d="M18.7665 19.2883L16.9627 21.0978C16.8092 21.2518 16.5406 21.2518 16.3487 21.0978L11.2062 15.9388C10.8608 15.5923 10.3235 15.5923 10.0165 15.9388L6.44739 19.5193V26.6417C6.44739 27.1037 6.83116 27.4887 7.29169 27.4887H28.1305L19.9945 19.2883C19.6491 18.9803 19.1119 18.9803 18.7665 19.2883Z" fill="white"/>
<path d="M23.4101 16.5163C24.4079 16.5163 25.1754 15.7078 25.1754 14.7453C25.1754 13.7444 24.3695 12.9744 23.4101 12.9744C22.4123 12.9744 21.6447 13.7829 21.6447 14.7453C21.6447 15.7463 22.4506 16.5163 23.4101 16.5163Z" fill="white"/>
</svg>
