<svg width="39" height="41" viewBox="0 0 39 41" fill="none" xmlns="http://www.w3.org/2000/svg">
<g clip-path="url(#clip0)">
<path d="M25.9223 20.6794C25.741 22.1912 25.0418 23.6262 23.9283 24.7281C22.5558 26.0862 20.6394 26.7269 18.2311 26.6244C16.5478 26.5475 15.7709 26.9831 15.6414 27.0856C15.1235 27.5212 14.4761 27.7775 13.7769 27.7775C13.0259 27.7775 12.3008 27.4956 11.7829 26.9575C10.8506 26.035 10.7211 24.6256 11.3426 23.5494L11.7829 22.8319C11.9382 22.4731 12.1454 21.73 12.0936 20.5512C11.99 18.1681 12.6374 16.2719 14.01 14.9137C15.1235 13.8119 16.5737 13.12 18.1275 12.9406C18.3347 11.89 18.8267 10.9162 19.5 10.0962H3.23705C1.4502 10.0962 0 11.5312 0 13.2994V29.2125H33.8207V13.4275L29.7032 18.3987C28.745 19.5775 27.3984 20.3719 25.9223 20.6794Z" fill="white"/>
<path d="M0 32.6462C0 34.4144 1.4502 35.8494 3.23705 35.8494H12.4562V38.5912H10.4104C9.73705 38.5912 9.19323 39.1294 9.19323 39.7956C9.19323 40.4619 9.73705 41 10.4104 41H23.4104C24.0837 41 24.6275 40.4619 24.6275 39.7956C24.6275 39.1294 24.0837 38.5912 23.4104 38.5912H21.3645V35.8494H30.5578C32.3446 35.8494 33.7948 34.4144 33.7948 32.6462V31.6212H0V32.6462Z" fill="white"/>
<path d="M13.5179 24.6512C13.3625 24.805 13.3625 25.0612 13.5179 25.215C13.5956 25.2919 13.6992 25.3431 13.8028 25.3431C13.9063 25.3431 14.0099 25.3175 14.0876 25.2406C14.1135 25.215 15.3307 24.0875 18.3605 24.2156C20.0697 24.2925 21.3645 23.8825 22.245 23.0112C24.0318 21.2431 24.0318 18.3731 22.245 16.605C21.3904 15.7594 20.2251 15.2725 19.0079 15.2725C17.7908 15.2725 16.6255 15.7337 15.7709 16.605C14.8904 17.4762 14.502 18.7575 14.5538 20.4487C14.6832 23.4212 13.5438 24.6512 13.5179 24.6512Z" fill="white"/>
<path d="M25.8187 18.1937C26.6215 17.9631 27.3207 17.5019 27.8645 16.8612L29.4183 14.9906L23.8765 9.50685L21.986 11.0444C21.3386 11.5569 20.8725 12.2744 20.6135 13.0687C21.8566 13.3506 23.0219 13.9912 23.9542 14.9137C24.9123 15.8362 25.5338 16.9893 25.8187 18.1937Z" fill="white"/>
<path d="M38.2749 0.717486C37.3686 -0.179389 35.9443 -0.256264 34.9602 0.563736L25.767 7.99499L30.9463 13.12L38.4562 4.02311C39.259 3.02374 39.1813 1.61436 38.2749 0.717486Z" fill="white"/>
</g>
<defs>
<clipPath id="clip0">
<rect width="39" height="41" fill="white"/>
</clipPath>
</defs>
</svg>
