<svg width="19" height="19" viewBox="0 0 19 19" fill="none" xmlns="http://www.w3.org/2000/svg">
<g clip-path="url(#clip0)">
<path d="M13.3704 0C11.8574 0 10.45 0.598148 9.39444 1.6537L1.6537 9.42963C0.598148 10.4852 0 11.8926 0 13.4056C0 16.5019 2.53333 19.0352 5.62963 19.0352C7.14259 19.0352 8.55 18.437 9.60556 17.3815L17.3815 9.60556C18.437 8.55 19.0352 7.14259 19.0352 5.62963C19 2.53333 16.4667 0 13.3704 0ZM6.05185 8.65556L3.48333 11.2593C2.92037 11.8222 2.6037 12.5963 2.6037 13.4056C2.6037 13.6519 2.42778 13.8278 2.18148 13.8278C1.93519 13.8278 1.72407 13.6167 1.72407 13.3704C1.72407 12.3148 2.11111 11.3648 2.85 10.6259L5.4537 8.02222C5.62963 7.8463 5.91111 7.8463 6.05185 8.02222C6.22778 8.23333 6.22778 8.47963 6.05185 8.65556ZM16.15 8.37407L12.5611 11.9278L7.07222 6.43889L10.6259 2.85C11.3648 2.11111 12.35 1.72407 13.3704 1.72407C15.5167 1.72407 17.2407 3.48333 17.2407 5.59444C17.2759 6.65 16.8537 7.63518 16.15 8.37407Z" fill="white"/>
</g>
<defs>
<clipPath id="clip0">
<rect width="19" height="19" fill="white"/>
</clipPath>
</defs>
</svg>
