<svg width="17" height="19" viewBox="0 0 17 19" fill="none" xmlns="http://www.w3.org/2000/svg">
<path d="M13.6119 11.9662L17 13.6298V12.6375L13.6119 10.9739V11.9662Z" fill="white"/>
<path d="M13.6119 19H17V14.8848L13.6119 13.2212V19Z" fill="white"/>
<path d="M17 4.49462C17 2.74347 16.0193 1.16743 14.4144 0.408602L13.6119 0V9.74808L17 11.4117V9.19355L15.4248 8.43472L17 7.67588V4.49462Z" fill="white"/>
<path d="M9.62937 0C8.0542 0 6.80594 1.25499 6.80594 2.77266V6.74194H5.67657V2.77266C5.67657 1.22581 4.3986 0 2.85315 0C1.30769 0 0 1.25499 0 2.77266C0 4.29032 1.27797 5.54531 2.82343 5.54531C3.44755 5.54531 4.04196 5.34101 4.51748 4.99078V13.0169C4.51748 14.7389 4.93357 16.4608 5.70629 17.9785L6.21154 18.9708L6.71678 17.9785C7.48951 16.4316 7.90559 14.7389 7.90559 13.0169V5.01997C8.38112 5.3702 8.97552 5.5745 9.59965 5.5745C11.1748 5.5745 12.4231 4.31951 12.4231 2.80184C12.4231 1.28418 11.2045 0 9.62937 0ZM2.82343 4.46544C1.87238 4.46544 1.12937 3.70661 1.12937 2.80184C1.12937 1.89708 1.9021 1.13825 2.82343 1.13825C3.74476 1.13825 4.51748 1.89708 4.51748 2.80184C4.51748 3.70661 3.77448 4.46544 2.82343 4.46544ZM9.62937 4.46544C8.67832 4.46544 7.93531 3.70661 7.93531 2.80184C7.93531 1.89708 8.70804 1.13825 9.62937 1.13825C10.5804 1.13825 11.3234 1.89708 11.3234 2.80184C11.3234 3.70661 10.5804 4.46544 9.62937 4.46544Z" fill="white"/>
</svg>
