<svg width="46" height="44" viewBox="0 0 46 44" fill="none" xmlns="http://www.w3.org/2000/svg">
<g clip-path="url(#clip0)">
<path d="M44.5276 21.12L36.2905 17.4363C35.057 16.8633 33.5847 17.4772 33.0673 18.746L29.5258 27.1368C28.9687 28.4056 29.5656 29.92 30.7992 30.4521L29.2075 32.826L27.4566 32.0893C26.7404 31.7619 25.9445 32.1302 25.6262 32.826C25.3078 33.5628 25.666 34.3814 26.3424 34.7088L27.576 35.2819L24.6712 39.5795C23.6763 41.053 24.2334 43.0586 25.8251 43.7544C27.0189 44.2865 28.4116 43.8772 29.1677 42.7721L35.9324 32.7442L39.0362 34.1358C40.2698 34.7088 41.7421 34.0949 42.2992 32.826L45.8407 24.4354C46.358 23.1665 45.7611 21.6521 44.5276 21.12Z" fill="white"/>
<path d="M1.4722 11.2558L6.52584 13.507C7.2421 13.8344 8.03795 13.507 8.35628 12.7702C8.67462 12.0335 8.31649 11.2149 7.64002 10.8874L2.5466 8.63626C1.83033 8.30882 1.03448 8.67719 0.716146 9.373C0.437599 10.1097 0.755938 10.9284 1.4722 11.2558Z" fill="white"/>
<path d="M6.16775 18.0093C6.12796 17.2316 5.49128 16.6177 4.69543 16.6586L1.27328 16.8633C0.557022 16.9042 -0.0398642 17.6 -7.17614e-05 18.3777C0.0397206 19.1554 0.676399 19.7693 1.47225 19.7284L4.89439 19.5237C5.65045 19.4828 6.20754 18.787 6.16775 18.0093Z" fill="white"/>
<path d="M8.59508 7.40838C9.07259 8.02233 9.94802 8.10419 10.5449 7.5721C11.1418 7.08094 11.2214 6.18047 10.7041 5.56652L8.51549 2.86512C8.03798 2.25117 7.16255 2.16931 6.56567 2.7014C5.96878 3.19256 5.8892 4.09303 6.4065 4.70698L8.59508 7.40838Z" fill="white"/>
<path d="M26.7802 26.5228L30.7196 17.1088C31.1972 15.9628 30.7992 14.6121 29.7248 13.9572L22.0449 9.12742C19.6176 7.613 18.4636 4.6251 19.0605 1.84184C19.2196 1.14603 18.9013 0.409283 18.2646 0.122772L18.2248 0.0818415C17.5086 -0.2456 16.6729 0.122772 16.3546 0.859516L5.41169 26.9321C5.09335 27.6688 5.45148 28.5284 6.16775 28.8558L6.20754 28.8967C6.84422 29.1832 7.56048 28.9377 7.9584 28.3237C9.51031 25.9497 12.4151 24.8037 15.1608 25.5404L23.8356 27.9963C25.0293 28.3237 26.2629 27.7097 26.7802 26.5228Z" fill="white"/>
</g>
<defs>
<clipPath id="clip0">
<rect width="46" height="44" fill="white"/>
</clipPath>
</defs>
</svg>
