<svg width="30" height="30" viewBox="0 0 30 30" fill="none" xmlns="http://www.w3.org/2000/svg">
<circle cx="15" cy="15" r="15" fill="white"/>
<path d="M20.149 7.5301C18.3456 6.9746 16.775 7.78029 15.8398 8.2637C15.7592 8.3061 15.6831 8.34427 15.6115 8.37819C15.4907 8.4418 15.3386 8.42908 15.2267 8.34851C14.3228 7.69548 13.2623 7.00004 12.1928 7.00004C11.1547 6.9958 10.1389 7.29264 9.27974 7.84813C8.86806 8.11528 8.49665 8.4418 8.18342 8.81072C8.16552 8.84464 8.14314 8.87432 8.12077 8.89977C6.56802 10.791 6.63514 13.454 8.28186 15.2732C8.29081 15.2816 8.29976 15.2944 8.30871 15.3071C8.33556 15.3452 8.36688 15.3834 8.3982 15.4258C8.434 15.4725 8.46533 15.5149 8.49665 15.5573C9.24394 16.5071 9.5885 17.7877 9.70037 18.2966C9.78539 18.691 9.86593 19.115 9.9241 19.5687C10.0807 20.8536 10.3447 21.9349 10.6893 22.6855V22.6982C11.0473 23.5123 11.4724 23.9576 11.9601 24H12.0541C12.2555 24 12.6806 23.7498 13.3026 22.1427C13.3026 22.1384 13.3026 22.1342 13.307 22.13L13.9917 20.4762C14.1707 20.0352 14.6226 19.7426 15.1193 19.7468C15.1283 19.7468 15.1327 19.7468 15.1417 19.7468C15.6518 19.7511 16.0993 20.0606 16.2649 20.5144L16.869 22.1469C17.3925 23.5081 17.8579 24 18.1174 24H18.2114C18.5515 23.9576 19.0437 23.7032 19.4822 22.6982C19.8089 21.9603 20.0505 20.9638 20.2519 19.5687C20.3101 19.115 20.3906 18.691 20.4756 18.3008C20.592 17.7877 20.9365 16.4986 21.6883 15.5488C22.9323 13.9544 23.3216 11.9444 22.7264 10.1804C22.2969 8.85312 21.3572 7.8863 20.149 7.5301Z" fill="#0177FD"/>
</svg>
