<svg width="19" height="20" viewBox="0 0 19 20" fill="none" xmlns="http://www.w3.org/2000/svg">
<path d="M15.6144 0.623648C13.473 -0.0298799 11.6078 0.917985 10.4972 1.4867C10.4016 1.53659 10.3112 1.58149 10.2262 1.6214C10.0828 1.69623 9.90209 1.68127 9.76924 1.58648C8.69585 0.81821 7.43648 5.27156e-05 6.16648 5.27156e-05C4.93368 -0.00493605 3.72745 0.344277 2.7072 0.997805C2.21833 1.3121 1.77729 1.69623 1.40532 2.13025C1.38406 2.17016 1.3575 2.20509 1.33093 2.23502C-0.512963 4.46001 -0.433255 7.59295 1.52222 9.73313C1.53285 9.7431 1.54348 9.75807 1.55411 9.77304C1.58599 9.81794 1.62319 9.86283 1.66038 9.91272C1.70289 9.9676 1.74009 10.0175 1.77729 10.0674C2.66469 11.1849 3.07385 12.6915 3.2067 13.2901C3.30766 13.7541 3.40331 14.2529 3.47239 14.7867C3.65837 16.2983 3.97189 17.5705 4.38105 18.4535V18.4685C4.80615 19.4263 5.31096 19.9501 5.89017 20H6.00176C6.24088 20 6.74569 19.7057 7.48431 17.8149C7.48431 17.8099 7.48431 17.8049 7.48962 17.8L8.30263 15.8543C8.51518 15.3355 9.05188 14.9913 9.64171 14.9963C9.65234 14.9963 9.65765 14.9963 9.66828 14.9963C10.2741 15.0013 10.8054 15.3654 11.002 15.8992L11.7194 17.8199C12.3411 19.4213 12.8938 20 13.202 20H13.3135C13.7174 19.9501 14.3019 19.6508 14.8227 18.4685C15.2106 17.6004 15.4975 16.428 15.7366 14.7867C15.8057 14.2529 15.9014 13.7541 16.0023 13.2951C16.1405 12.6915 16.5497 11.1749 17.4424 10.0574C18.9196 8.18162 19.3819 5.81695 18.6752 3.74162C18.165 2.18014 17.0491 1.0427 15.6144 0.623648Z" fill="white"/>
</svg>
