<svg width="20" height="20" viewBox="0 0 20 20" fill="none" xmlns="http://www.w3.org/2000/svg">
<circle cx="10" cy="10" r="10" fill="url(#paint0_linear)"/>
<g clip-path="url(#clip0)">
<path d="M14.8059 13.1314L12.7137 11.7725C12.5627 11.6863 12.3686 11.7078 12.2392 11.8157L11.398 12.6569C11.3118 12.7431 11.2039 12.7863 11.0745 12.7647C10.6431 12.7216 9.60784 12.4843 8.55098 11.4275C7.49412 10.3706 7.25686 9.33529 7.21373 8.90392C7.19216 8.79608 7.23529 8.66667 7.32157 8.58039L8.16274 7.73922C8.29216 7.6098 8.31373 7.41569 8.20588 7.26471L6.84706 5.17255C6.73922 5 6.52353 4.95686 6.35098 5.04314L4.21569 6.07843C4.06471 6.14314 4 6.29412 4 6.4451C4.10784 7.52353 4.58235 10.1765 7.19216 12.7863C9.80196 15.4176 12.4765 15.8922 13.5549 16C13.7059 16.0216 13.8569 15.9353 13.9216 15.7843L14.9569 13.6275C15.0431 13.4333 14.9784 13.2392 14.8059 13.1314Z" fill="white"/>
<path d="M9.50001 7.65297C11.0745 7.65297 12.3471 8.92552 12.3471 10.5C12.3471 10.7157 12.5196 10.8883 12.7353 10.8883C12.951 10.8883 13.1235 10.7157 13.1235 10.5C13.1235 8.51572 11.5059 6.89807 9.52158 6.89807C9.30589 6.89807 9.13334 7.07062 9.13334 7.28631C9.11177 7.48042 9.28432 7.65297 9.50001 7.65297Z" fill="white"/>
<path d="M9.49999 5.7549C12.1098 5.7549 14.2451 7.86863 14.2451 10.5C14.2451 10.7157 14.4176 10.8882 14.6333 10.8882C14.7412 10.8882 14.8274 10.8451 14.8921 10.7804C14.9569 10.7157 15 10.6078 15 10.5216C15 7.45882 12.5412 5 9.49999 5C9.2843 5 9.11176 5.17255 9.11176 5.38824C9.11176 5.58235 9.2843 5.7549 9.49999 5.7549Z" fill="white"/>
</g>
<defs>
<linearGradient id="paint0_linear" x1="10" y1="0" x2="10" y2="20" gradientUnits="userSpaceOnUse">
<stop stop-color="#0179FD"/>
<stop offset="1" stop-color="#1566C2"/>
</linearGradient>
<clipPath id="clip0">
<rect width="11" height="11" fill="white" transform="translate(4 5)"/>
</clipPath>
</defs>
</svg>
