<svg width="25" height="26" viewBox="0 0 25 26" fill="none" xmlns="http://www.w3.org/2000/svg">
<path fill-rule="evenodd" clip-rule="evenodd" d="M20.7944 3.28037H21.8458C23.5981 3.28037 25 4.73832 25 6.43925V22.7196C25 24.5421 23.5981 26 21.8458 26H3.15421C1.40187 26 0 24.5421 0 22.7196V6.43925C0 4.73832 1.40187 3.28037 3.15421 3.28037H4.20561V1.09346C4.20561 0.485981 4.6729 0 5.25701 0H6.19159C6.7757 0 7.24299 0.485981 7.24299 1.09346V3.28037H17.6402V1.09346C17.6402 0.485981 18.1075 0 18.6916 0H19.743C20.3271 0 20.7944 0.485981 20.7944 1.09346V3.28037ZM21.8458 23.8131C22.4299 23.8131 22.8972 23.3271 22.8972 22.7196V10.8131H2.1028V22.7196C2.1028 23.3271 2.57009 23.8131 3.15421 23.8131H21.8458ZM5 13H8V16H5V13ZM5 18H8V21H5V18ZM14 13H11V16H14V13ZM11 18H14V21H11V18ZM20 13H17V16H20V13ZM17 18H20V21H17V18Z" fill="url(#paint0_linear)"/>
<defs>
<linearGradient id="paint0_linear" x1="6" y1="3" x2="12" y2="26" gradientUnits="userSpaceOnUse">
<stop stop-color="#19C980"/>
<stop offset="1" stop-color="#128253"/>
</linearGradient>
</defs>
</svg>
