<svg width="24" height="24" viewBox="0 0 24 24" fill="none" xmlns="http://www.w3.org/2000/svg">
<path d="M20.4993 3.48603C18.244 1.24022 15.2482 0 12.0505 0C5.45301 0 0.100982 5.32961 0.100982 11.8994C0.100982 14.0112 0.639551 16.0559 1.68303 17.8324L0 24L6.32819 22.3575C8.07854 23.2961 10.0309 23.7989 12.0505 23.7989C18.648 23.7989 24 18.4693 24 11.8994C24 8.71508 22.7546 5.73184 20.4993 3.48603ZM12.0505 21.7877C10.2665 21.7877 8.51613 21.3184 7.0014 20.4134L6.63114 20.2123L2.86115 21.1844L3.87097 17.5307L3.63534 17.162C2.62553 15.5866 2.12062 13.7765 2.12062 11.8994C2.12062 6.43575 6.56381 2.01117 12.0505 2.01117C14.7097 2.01117 17.2006 3.05028 19.0856 4.89386C20.9705 6.77095 21.9804 9.2514 21.9804 11.8994C21.9804 17.3631 17.5035 21.7877 12.0505 21.7877Z" fill="#E0E0E0"/>
<path d="M0.538567 23.2961L2.15427 17.4302C1.14446 15.7207 0.639548 13.743 0.639548 11.7654C0.639548 5.49719 5.75596 0.402222 12.0505 0.402222C15.1136 0.402222 17.9748 1.57541 20.129 3.72066C22.2833 5.86591 23.4614 8.71507 23.4614 11.7318C23.4278 18.0335 18.3114 23.1285 12.0505 23.1285C10.1318 23.1285 8.2805 22.6592 6.59747 21.7542L0.538567 23.2961Z" fill="url(#paint0_linear)"/>
<path d="M9.08836 6.838C8.85273 6.33521 8.65077 6.33521 8.41515 6.33521C8.24684 6.33521 8.04488 6.33521 7.84292 6.33521C7.64095 6.33521 7.33801 6.40224 7.06872 6.70392C6.79944 7.0056 6.02525 7.70951 6.02525 9.15085C6.02525 10.5922 7.06872 12 7.23703 12.2011C7.37167 12.4022 9.29032 15.4525 12.2861 16.6257C14.777 17.5978 15.2819 17.3967 15.8205 17.3631C16.359 17.3296 17.5708 16.6592 17.8064 15.9553C18.0421 15.2849 18.0421 14.6816 17.9748 14.5475C17.9074 14.4134 17.7055 14.3464 17.4025 14.2123C17.0996 14.0782 15.6522 13.3408 15.3829 13.2402C15.1136 13.1397 14.9116 13.1062 14.7097 13.3743C14.5077 13.676 13.9355 14.3464 13.7672 14.514C13.5989 14.7151 13.4306 14.7486 13.1276 14.581C12.8247 14.4469 11.8822 14.1117 10.7714 13.1062C9.89621 12.3352 9.29032 11.3631 9.12202 11.0615C8.95372 10.7598 9.08836 10.5922 9.25666 10.4581C9.3913 10.324 9.55961 10.1229 9.69425 9.95532C9.82889 9.78772 9.89621 9.65364 9.99719 9.45252C10.0982 9.25141 10.0309 9.08381 9.96353 8.94973C9.92987 8.88269 9.35764 7.40783 9.08836 6.838Z" fill="white"/>
<path d="M20.3983 3.45251C18.1767 1.24022 15.2146 0 12.0505 0C5.52034 0 0.235633 5.26257 0.235633 11.7654C0.235633 13.8436 0.774202 15.8547 1.81768 17.6313L0.134651 23.7318L6.39552 22.0894C8.11221 23.0279 10.0645 23.5307 12.0505 23.5307C18.547 23.5307 23.8654 18.2682 23.8654 11.7654C23.8654 8.61452 22.6199 5.6648 20.3983 3.45251ZM12.0505 21.5196C10.3001 21.5196 8.5498 21.0503 7.03507 20.1453L6.6648 19.9441L2.96214 20.9162L3.9383 17.2961L3.70267 16.9274C2.72652 15.3855 2.18795 13.5754 2.18795 11.7318C2.22161 6.36872 6.63114 1.97765 12.0505 1.97765C14.676 1.97765 17.1332 2.98324 18.9846 4.82682C20.8359 6.67039 21.8457 9.11732 21.8457 11.7318C21.8457 17.162 17.4699 21.5196 12.0505 21.5196Z" fill="white"/>
<defs>
<linearGradient id="paint0_linear" x1="11.9953" y1="23.3089" x2="11.9953" y2="0.408836" gradientUnits="userSpaceOnUse">
<stop stop-color="#20B038"/>
<stop offset="1" stop-color="#60D66A"/>
</linearGradient>
</defs>
</svg>
