<svg width="28" height="28" viewBox="0 0 28 28" fill="none" xmlns="http://www.w3.org/2000/svg">
<path d="M8.03541 12.7677C8.52395 15.6261 11.0104 17.7917 14 17.7917C16.9896 17.7917 19.476 15.6188 19.9646 12.7677H20.0958C21.0729 12.7677 21.8677 11.9729 21.8677 10.9959C21.8677 10.0188 21.0729 9.22398 20.0958 9.22398H20.0521V8.56773C17.6604 8.00627 16.1948 6.73752 15.4437 5.8844C14.35 6.86148 11.9802 8.51669 7.9552 9.20211L7.75104 9.23127C6.84687 9.31148 6.13958 10.0698 6.13958 10.9959C6.13958 11.9729 6.93437 12.7677 7.91145 12.7677H8.03541Z" fill="url(#paint0_linear)"/>
<path d="M7.94792 7.53958C12.8771 6.62083 14.8531 4.15625 14.875 4.12708L15.626 3.16458L16.2313 4.22917C16.275 4.30208 17.3615 6.10313 20.0448 6.87604V6.05208C20.0448 2.7125 17.3396 0 13.9927 0C10.6531 0 7.94063 2.70521 7.94063 6.05208V7.53958H7.94792Z" fill="url(#paint1_linear)"/>
<path d="M21.9917 23.0781H21.7365C20.9927 23.0781 20.3802 23.6833 20.3802 24.4344V26.3594H23.3406V24.4344C23.3479 23.6833 22.7427 23.0781 21.9917 23.0781Z" fill="url(#paint2_linear)"/>
<path d="M7.22604 25.2656C7.22604 25.8708 6.7375 26.3594 6.13229 26.3594C5.52709 26.3594 5.03854 25.8708 5.03854 25.2656C5.03854 24.6604 5.52709 24.1719 6.13229 24.1719C6.7375 24.1719 7.22604 24.6604 7.22604 25.2656Z" fill="url(#paint3_linear)"/>
<path d="M15.9687 19.1771C15.3271 19.3448 14.6708 19.4323 14 19.4323C13.3292 19.4323 12.6729 19.3448 12.0312 19.1771L14 21.9407L15.9687 19.1771Z" fill="url(#paint4_linear)"/>
<path d="M3.39792 25.2656C3.39792 24.0406 4.20729 23.0052 5.30833 22.6552V17.7916L3.06979 18.8416C1.21042 19.7239 0 21.627 0 23.6906V28H6.13229C4.63021 28 3.39792 26.775 3.39792 25.2656Z" fill="url(#paint5_linear)"/>
<path d="M24.9229 18.8489L22.6844 17.799V21.525C24.0042 21.8385 24.9885 23.0271 24.9885 24.4344V28H28V23.6906C28 21.6271 26.7896 19.7239 24.9229 18.8489Z" fill="url(#paint6_linear)"/>
<path d="M21.0438 21.5177V17.026L20.0083 16.5375C19.8042 16.8 14 24.7625 14 24.7625C14 24.7625 8.19584 16.8 7.99167 16.5375L6.95625 17.026V22.6552C8.06459 23.0052 8.86667 24.0406 8.86667 25.2656C8.86667 26.775 7.64167 28 6.13229 28H18.7396V24.4343C18.7469 23.0198 19.7313 21.8312 21.0438 21.5177Z" fill="url(#paint7_linear)"/>
<defs>
<linearGradient id="paint0_linear" x1="14.0036" y1="5.8844" x2="14.0036" y2="17.7917" gradientUnits="userSpaceOnUse">
<stop stop-color="#BA5CFF"/>
<stop offset="1" stop-color="#6A0DAF"/>
</linearGradient>
<linearGradient id="paint1_linear" x1="13.9927" y1="0" x2="13.9927" y2="7.53958" gradientUnits="userSpaceOnUse">
<stop stop-color="#BA5CFF"/>
<stop offset="1" stop-color="#6A0DAF"/>
</linearGradient>
<linearGradient id="paint2_linear" x1="21.8604" y1="23.0781" x2="21.8604" y2="26.3594" gradientUnits="userSpaceOnUse">
<stop stop-color="#BA5CFF"/>
<stop offset="1" stop-color="#6A0DAF"/>
</linearGradient>
<linearGradient id="paint3_linear" x1="6.13229" y1="24.1719" x2="6.13229" y2="26.3594" gradientUnits="userSpaceOnUse">
<stop stop-color="#BA5CFF"/>
<stop offset="1" stop-color="#6A0DAF"/>
</linearGradient>
<linearGradient id="paint4_linear" x1="14" y1="19.1771" x2="14" y2="21.9407" gradientUnits="userSpaceOnUse">
<stop stop-color="#BA5CFF"/>
<stop offset="1" stop-color="#6A0DAF"/>
</linearGradient>
<linearGradient id="paint5_linear" x1="3.06615" y1="17.7916" x2="3.06615" y2="28" gradientUnits="userSpaceOnUse">
<stop stop-color="#BA5CFF"/>
<stop offset="1" stop-color="#6A0DAF"/>
</linearGradient>
<linearGradient id="paint6_linear" x1="25.3422" y1="17.799" x2="25.3422" y2="28" gradientUnits="userSpaceOnUse">
<stop stop-color="#BA5CFF"/>
<stop offset="1" stop-color="#6A0DAF"/>
</linearGradient>
<linearGradient id="paint7_linear" x1="13.588" y1="16.5375" x2="13.588" y2="28" gradientUnits="userSpaceOnUse">
<stop stop-color="#BA5CFF"/>
<stop offset="1" stop-color="#6A0DAF"/>
</linearGradient>
</defs>
</svg>
