<svg width="21" height="32" viewBox="0 0 21 32" fill="none" xmlns="http://www.w3.org/2000/svg">
<path d="M10.5 0C4.66667 0 0 4.66667 0 10.5C0 12.25 0.466667 14 1.28333 15.5167L9.91667 31.15C10.0333 31.3833 10.2667 31.5 10.5 31.5C10.7333 31.5 10.9667 31.3833 11.0833 31.15L19.7167 15.5167C20.5333 14 21 12.25 21 10.5C20.8833 4.66667 16.2167 0 10.5 0ZM10.5 15.6333C7.58333 15.6333 5.25 13.3 5.25 10.3833C5.25 7.46667 7.58333 5.13333 10.5 5.13333C13.4167 5.13333 15.75 7.46667 15.75 10.3833C15.75 13.3 13.3 15.6333 10.5 15.6333Z" fill="url(#paint0_linear)"/>
<defs>
<linearGradient id="paint0_linear" x1="10.5" y1="0" x2="10.5" y2="31.5" gradientUnits="userSpaceOnUse">
<stop stop-color="#0179FD"/>
<stop offset="1" stop-color="#1566C2"/>
</linearGradient>
</defs>
</svg>
